<?xml version="1.0" encoding="utf-8"?>
<svg xmlns="http://www.w3.org/2000/svg" xmlns:xlink="http://www.w3.org/1999/xlink" version= "1.1" width="200px" height="200px" viewBox="260 540 200 200">
<g id="layer1">
<g style="fill:rgb(0,0,0); fill-opacity:1.0; stroke-linejoin: miter">
<path d="M419.67368,693.34973C389.90848,726.6805,338.76007,729.5733,305.42648,699.8114C272.09296,670.0496,269.19492,618.90173,298.95303,585.56494C328.71118,552.2283,379.85858,549.3246,413.1984,579.07904C446.53842,608.8337,449.44763,659.981,419.6965,693.3242L419.67093,693.28406 Z"/>
</g>
</g>
<g id="layer2">
<g>
<g style="fill:rgb(0,0,0); fill-opacity:1.0; stroke-linejoin: miter">
<path d="M355.73938,668.61536C339.58258,684.4606,313.64023,684.20917,297.79337,668.05396C281.94632,651.8987,282.19476,625.95636,298.3484,610.1078C314.5019,594.25916,340.4443,594.50494,356.29453,610.6568C372.14496,626.8087,371.9019,652.7512,355.75177,668.60315L355.74017,668.5822 Z"/>
</g>
<g>
<g style="fill:rgb(0,255,0); fill-opacity:1.0; stroke-linejoin: miter">
<path d="M294.57367,644.4361C293.17328,629.4183,305.237,612.2004,322.13513,608.89856C339.04547,605.5942,359.5628,616.46423,359.69238,631.75055C359.81674,646.46185,341.05618,665.1899,325.3922,668.23175C309.73828,671.2715,295.92142,658.8896,294.57367,644.4361 Z"/>
</g>
<g style="fill:rgb(0,0,0); fill-opacity:0.0; stroke-linejoin: miter">
<path d="M294.57367,644.4361L294.57367,644.4361C293.17328,629.4183,305.237,612.2004,322.13513,608.89856L322.13513,608.89856C332.1053,606.9504,343.43286,609.9711,351.0256,615.96484L351.0256,615.96484C356.22797,620.07184,359.63928,625.5491,359.69238,631.75055L359.69238,631.75055C359.81674,646.46185,341.05606,665.1899,325.3922,668.23175L325.3922,668.23175C318.2569,669.61755,311.56708,667.8354,306.2495,664.14716L306.2495,664.14716C299.81268,659.68243,295.3131,652.37006,294.57367,644.4361L294.57367,644.4361 M294.57367,644.4361L294.57367,644.4361C295.3131,652.37006,299.81268,659.68243,306.2495,664.14716L306.2495,664.14716C311.56708,667.8354,318.2569,669.61755,325.3922,668.23175L325.3922,668.23175C341.05606,665.1899,359.81674,646.46185,359.69238,631.75055L359.69238,631.75055C359.63928,625.5491,356.22797,620.07184,351.0256,615.96484L351.0256,615.96484C343.43286,609.9711,332.1053,606.9504,322.13513,608.89856L322.13513,608.89856C305.237,612.2004,293.17328,629.4183,294.57367,644.4361 Z"/>
</g>
</g>
<g style="fill:rgb(0,0,0); fill-opacity:1.0; stroke-linejoin: miter">
<path d="M329.15555,606.4416L329.15573,606.4428C309.66086,605.58167,293.0715,620.76373,292.20837,640.25714C291.3452,659.7522,306.52817,676.33997,326.0223,677.2013C345.5166,678.0626,362.10477,662.87976,362.96805,643.3853C363.8312,623.8906,348.6491,607.30365,329.15555,606.4416L329.15573,606.4428 Z M324.36392,634.58923L324.36407,634.59033L324.83414,623.97577C324.92053,622.0296,326.58313,620.5078,328.52872,620.59393L328.52856,620.5979C330.4746,620.6802,331.9957,622.3414,331.90988,624.2882L331.4396,634.9015L337.7729,635.18634C339.36462,635.2517,340.05862,637.1977,338.87793,638.2436L328.5696,647.6781C327.83063,648.3546,326.73404,648.30566,326.0579,647.56726L316.62436,637.26056C315.57587,636.1151,316.43884,634.23846,318.03098,634.3095L324.36337,634.5929L324.36392,634.58923 Z M340.9577,660.1373L340.9578,660.1386L312.6537,658.89C310.70798,658.801,309.1856,657.1365,309.27185,655.1911L309.27155,655.19464C309.35864,653.2467,311.02103,651.7248,312.96664,651.8105L341.27075,653.0644C343.21686,653.14703,344.73804,654.80914,344.6516,656.75476L344.65146,656.7582C344.5655,658.70105,342.90326,660.22327,340.9577,660.1373L340.9578,660.1386 Z"/>
</g>
</g>
<g>
<g style="fill:rgb(0,0,0); fill-opacity:1.0; stroke-linejoin: miter">
<path d="M421.10526,668.491C404.1385,682.2253,379.25043,679.6064,365.5141,662.64124C351.7778,645.67584,354.394,620.78766,371.35788,607.0496C388.32175,593.31134,413.21036,595.925,426.95032,612.8874C440.69028,629.85004,438.07925,654.7387,421.11826,668.4804L421.10907,668.45905 Z"/>
</g>
<g>
<g style="fill:rgb(0,255,0); fill-opacity:0.9607843; stroke-linejoin: miter">
<path d="M408.7985,615.3117C400.22632,613.05115,366.61365,615.1807,367.9419,628.2257C369.27017,641.27075,405.53833,665.2291,414.1108,667.4898C422.6833,669.75073,403.5589,650.31335,402.2306,637.26825C400.9023,624.2232,417.37076,617.5724,408.7985,615.3117 Z"/>
</g>
<g style="fill:rgb(0,0,0); fill-opacity:0.9607843; stroke-linejoin: miter">
<path d="M408.7985,615.3117L408.7985,615.3117C400.79782,613.2019,370.98404,614.9162,368.1244,625.7604L368.1244,625.7604C367.9201,626.53503,367.8534,627.3562,367.9419,628.2257L367.9419,628.2257C369.27017,641.27075,405.53833,665.2291,414.1108,667.4898L414.1108,667.4898C415.45306,667.8438,416.1163,667.66583,416.2751,667.06366L416.2751,667.06366C416.62964,665.71954,414.4702,662.2613,411.74008,657.88934L411.74008,657.88934C407.8829,651.71204,402.88654,643.71063,402.2306,637.26825L402.2306,637.26825C401.54468,630.5318,405.60455,625.5004,408.51135,621.89844L408.51135,621.89844C410.1319,619.88983,411.39407,618.32574,411.27512,617.1579L411.27512,617.1579C411.19437,616.36444,410.4758,615.7541,408.7985,615.3117L408.7985,615.3117L408.7985,615.3117L408.7985,615.3117 M408.7985,615.3117L408.7985,615.3117L408.7985,615.3117L408.7985,615.3117C410.4758,615.7541,411.19437,616.36444,411.27512,617.1579L411.27512,617.1579C411.39407,618.32574,410.1319,619.88983,408.51135,621.89844L408.51135,621.89844C405.60455,625.5004,401.54468,630.5318,402.2306,637.26825L402.2306,637.26825C402.88654,643.71063,407.8829,651.71204,411.74008,657.88934L411.74008,657.88934C414.4702,662.2613,416.62964,665.71954,416.2751,667.06366L416.2751,667.06366C416.1163,667.66583,415.45306,667.8438,414.1108,667.4898L414.1108,667.4898C405.53833,665.2291,369.27017,641.27075,367.9419,628.2257L367.9419,628.2257C367.8534,627.3562,367.9201,626.53503,368.1244,625.7604L368.1244,625.7604C370.98404,614.9162,400.79782,613.2019,408.7985,615.3117 Z"/>
</g>
</g>
<g>
<g style="fill:rgb(0,255,0); fill-opacity:1.0; stroke-linejoin: miter">
<path d="M412.79465,632.73737C416.32822,628.4858,422.1404,624.8191,425.29218,625.2113C428.4439,625.60364,428.93518,630.05444,425.4016,634.3059C421.86798,638.55725,414.30975,642.6092,411.15802,642.2171C408.00626,641.82495,409.26108,636.98865,412.79465,632.73737 Z"/>
</g>
<g style="fill:rgb(0,0,0); fill-opacity:0.0; stroke-linejoin: miter">
<path d="M412.79465,632.73737L412.79465,632.73737C416.32822,628.4858,422.1404,624.8191,425.29218,625.2113L425.29218,625.2113C427.1507,625.4426,428.08408,627.0852,427.81268,629.26575L427.81268,629.26575C427.6238,630.7832,426.85156,632.5614,425.4016,634.3059L425.4016,634.3059C421.86798,638.55725,414.30972,642.6092,411.15802,642.2171L411.15802,642.2171C409.7216,642.03845,409.20053,640.93665,409.39322,639.38794L409.39322,639.38794C409.62332,637.5383,410.87143,635.05115,412.79465,632.73737L412.79465,632.73737 M412.79465,632.73737L412.79465,632.73737C410.87143,635.05115,409.62332,637.5383,409.39322,639.38794L409.39322,639.38794C409.20053,640.93665,409.7216,642.03845,411.15802,642.2171L411.15802,642.2171C414.30972,642.6092,421.86798,638.55725,425.4016,634.3059L425.4016,634.3059C426.85156,632.5614,427.6238,630.7832,427.81268,629.26575L427.81268,629.26575C428.08408,627.0852,427.1507,625.4426,425.29218,625.2113L425.29218,625.2113C422.1404,624.8191,416.32822,628.4858,412.79465,632.73737 Z"/>
</g>
</g>
</g>
<g style="fill:rgb(0,255,46); fill-opacity:0.4117647; stroke-linejoin: miter">
<path d="M389.80005,576.1131L332.3501,575.65594C326.03055,575.612,320.824,580.7466,320.7801,587.0663L320.66013,604.30115C320.63815,607.4611,323.20547,610.06445,326.36514,610.0864C329.52493,610.1084,332.12817,607.541,332.15018,604.38116L332.19016,598.6364L389.64053,599.04175L389.081,679.46674L331.63046,679.07245L331.67044,673.32153C331.69244,670.16174,329.12515,667.5587,325.96536,667.53674C322.80557,667.5148,320.20233,670.0818,320.18033,673.2416L320.06046,690.4767C320.0165,696.7965,325.151,702.0028,331.47052,702.04675L388.92096,702.45233C395.24048,702.4906,400.44696,697.35596,400.49103,691.0364L401.21066,587.6257C401.25458,581.3064,396.1196,576.15704,389.80005,576.1131 Z M349.0255,656.20667C352.1853,656.2286,354.78848,653.6611,354.8105,650.5013L355.01035,621.7762C355.03235,618.61664,352.4651,616.01306,349.30536,615.99115L320.58014,615.797C317.42035,615.76935,314.8171,618.33685,314.79514,621.4964C314.77313,624.65607,317.3404,627.25946,320.5002,627.28143L335.37982,627.39087L307.0911,655.28284C304.83493,657.50793,304.80975,661.12726,307.03473,663.3834L343.42398,635.542L343.32043,650.42126C343.29846,653.58105,345.86572,656.1847,349.0255,656.20667 Z"/>
</g>
</g>
</svg>