<?xml version="1.0" encoding="utf-8"?>
<svg xmlns="http://www.w3.org/2000/svg" xmlns:xlink="http://www.w3.org/1999/xlink" version= "1.1" width="200px" height="200px" viewBox="260 540 200 200">
<g id="layer1">
<g style="fill:rgb(0,0,0); fill-opacity:1.0; stroke-linejoin: miter">
<path d="M419.67368,693.34973C389.90848,726.6805,338.76007,729.5733,305.42648,699.8114C272.09296,670.0496,269.19492,618.90173,298.95303,585.56494C328.71118,552.2283,379.85858,549.3246,413.1984,579.07904C446.53842,608.8337,449.44763,659.981,419.6965,693.3242L419.67093,693.28406 Z"/>
</g>
<g>
<g style="fill:#00ff00; fill-opacity:1.0; stroke-linejoin: miter">
<path d="M377.3195,589.9465C359.2558,588.1979,292.04108,603.5543,299.01453,629.4752C305.988,655.39606,387.1477,691.87854,405.21198,693.6274C423.27628,695.3763,378.24286,662.3912,371.26923,636.47003C364.29553,610.54895,395.38327,591.6952,377.31952,589.9465 Z"/>
</g>
<g style="fill:#00ff00; fill-opacity:1.0; stroke-linejoin: miter">
<path d="M377.3195,589.9465L377.3195,589.9465C360.46005,588.31445,300.78467,601.58276,298.57245,624.43365L298.57245,624.43365C298.41443,626.06586,298.5496,627.7471,299.01453,629.4752L299.01453,629.4752C305.988,655.39606,387.1477,691.87854,405.21198,693.6274L405.21198,693.6274C408.04053,693.90125,409.32202,693.32336,409.44482,692.0545L409.44482,692.0545C409.7191,689.22174,404.2188,682.94464,397.2647,675.0083L397.2647,675.0083C387.43988,663.7957,374.7132,649.27136,371.26923,636.47003L371.26923,636.47003C367.668,623.0843,374.2167,611.5833,378.90518,603.3492L378.90518,603.3492C381.51935,598.7581,383.55518,595.1828,382.93094,592.86255L382.93094,592.86255C382.50677,591.2859,380.85403,590.28876,377.31952,589.9465L377.31952,589.9465L377.3195,589.9465L377.3195,589.9465 M377.3195,589.9465L377.3195,589.9465L377.31952,589.9465L377.31952,589.9465C380.85403,590.28876,382.50677,591.2859,382.93094,592.86255L382.93094,592.86255C383.55518,595.1828,381.51935,598.7581,378.90518,603.3492L378.90518,603.3492C374.2167,611.5833,367.668,623.0843,371.26923,636.47003L371.26923,636.47003C374.7132,649.27136,387.43988,663.7957,397.2647,675.0083L397.2647,675.0083C404.2188,682.94464,409.7191,689.22174,409.44482,692.0545L409.44482,692.0545C409.32202,693.32336,408.04053,693.90125,405.21198,693.6274L405.21198,693.6274C387.1477,691.87854,305.988,655.39606,299.01453,629.4752L299.01453,629.4752C298.5496,627.7471,298.41443,626.06586,298.57245,624.43365L298.57245,624.43365C300.78467,601.58276,360.46005,588.31445,377.3195,589.9465 Z"/>
</g>
</g>
<g>
<g style="fill:#00ff00; fill-opacity:1.0; stroke-linejoin: miter">
<path d="M391.1241,623.84094C396.8656,614.0886,407.40347,604.7686,413.90067,604.5247C420.39783,604.2808,422.85413,613.11237,417.11252,622.8645C411.3708,632.61676,397.43173,643.28925,390.93463,643.53345C384.43753,643.7776,385.3826,633.59326,391.1241,623.84094 Z"/>
</g>
<g style="fill:#00ff00; fill-opacity:1.0; stroke-linejoin: miter">
<path d="M391.1241,623.84094L391.1241,623.84094C396.8656,614.0886,407.40347,604.7686,413.90067,604.5247L413.90067,604.5247C417.73184,604.3809,420.15793,607.39264,420.3267,611.888L420.3267,611.888C420.44415,615.0162,419.4685,618.86285,417.11252,622.8645L417.11252,622.8645C411.3708,632.61676,397.43173,643.28925,390.93463,643.53345L390.93463,643.53345C387.97366,643.64465,386.55838,641.59,386.43842,638.39734L386.43842,638.39734C386.29514,634.5845,387.99927,629.14874,391.1241,623.84094L391.1241,623.84094 M391.1241,623.84094L391.1241,623.84094C387.99927,629.14874,386.29514,634.5845,386.43842,638.39734L386.43842,638.39734C386.55838,641.59,387.97366,643.64465,390.93463,643.53345L390.93463,643.53345C397.43173,643.28925,411.3708,632.61676,417.11252,622.8645L417.11252,622.8645C419.4685,618.86285,420.44415,615.0162,420.3267,611.888L420.3267,611.888C420.15793,607.39264,417.73184,604.3809,413.90067,604.5247L413.90067,604.5247C407.40347,604.7686,396.8656,614.0886,391.1241,623.84094 Z"/>
</g>
</g>
</g>
</svg>