<?xml version="1.0" encoding="utf-8"?>
<svg xmlns="http://www.w3.org/2000/svg" xmlns:xlink="http://www.w3.org/1999/xlink" version= "1.1" width="200px" height="200px" viewBox="260 540 200 200">
<g id="layer1">
<g style="fill:rgb(0,0,0); fill-opacity:1.0; stroke-linejoin: miter">
<path d="M432.4561,681.4284C409.8074,721.81647,358.70755,736.19934,318.31726,713.5547C277.92706,690.91016,263.53903,639.812,286.17908,599.41925C308.81924,559.0268,359.91568,544.6332,400.3106,567.2689C440.70578,589.9047,455.105,640.9999,432.47348,681.39746L432.43863,681.36255 Z"/>
</g>
<g style="fill:rgb(0,179,255); fill-opacity:1.0; stroke-linejoin: miter">
<path d="M366.4453,586.2998L366.44556,586.3008C349.02274,588.42474,291.61987,615.2146,294.49988,638.82874L294.50006,638.8297C294.70557,640.5155,295.21887,642.18616,296.0763,643.83044L296.07654,643.8314C308.93726,668.4931,399.21945,687.2251,417.88712,684.9484L417.8873,684.9494C420.81015,684.592,421.9772,683.7203,421.8173,682.40906L421.81747,682.41003C421.46024,679.4817,414.4896,674.363,405.67642,667.8912L405.6766,667.89215C393.22507,658.74774,377.09607,646.9036,370.7445,634.72363L370.7447,634.7246C364.1029,621.9876,368.1524,608.88513,371.0515,599.5044L371.05176,599.5054C372.66803,594.274,373.92694,590.2008,372.7757,587.99316L372.77588,587.99414C371.9934,586.493,370.09796,585.8544,366.44537,586.29974L366.44562,586.3007L366.4453,586.2998L366.44556,586.3008 M366.4453,586.2998L366.44556,586.3008L366.44537,586.29974L366.44562,586.3007C370.09796,585.8544,371.9934,586.493,372.7757,587.99316L372.77588,587.99414C373.92694,590.2008,372.66803,594.274,371.0515,599.5044L371.05176,599.5054C368.1524,608.88513,364.1029,621.9876,370.7445,634.72363L370.7447,634.7246C377.09607,646.9036,393.22507,658.74774,405.67642,667.8912L405.6766,667.89215C414.4896,674.363,421.46024,679.4817,421.8173,682.40906L421.81747,682.41003C421.9772,683.7203,420.81015,684.592,417.88712,684.9484L417.8873,684.9494C399.21945,687.2251,308.93726,668.4931,296.0763,643.83044L296.07654,643.8314C295.21887,642.18616,294.70557,640.5155,294.49988,638.82874L294.50006,638.8297C291.61987,615.2146,349.02274,588.42474,366.4453,586.2998 Z"/>
</g>
<g style="fill:rgb(0,179,255); fill-opacity:1.0; stroke-linejoin: miter">
<path d="M388.00345,617.4996L388.00363,617.50055C391.62784,606.3469,400.2017,594.55743,406.72043,592.8554L406.7206,592.85645C410.5643,591.8518,413.6934,594.35547,414.87094,598.8657L414.8712,598.8667C415.69046,602.0042,415.56497,606.1145,414.07767,610.69073L414.07785,610.6917C410.4529,621.8433,398.74094,635.7629,392.22244,637.4653L392.22263,637.46625C389.25168,638.2409,387.3596,636.47925,386.52316,633.276L386.52335,633.277C385.5242,629.45056,386.0308,623.5694,388.00345,617.4996L388.00363,617.50055 M388.00345,617.4996L388.00363,617.50055C386.0308,623.5694,385.5242,629.45056,386.52316,633.276L386.52335,633.277C387.3596,636.47925,389.25168,638.2409,392.22244,637.4653L392.22263,637.46625C398.74094,635.7629,410.4529,621.8433,414.07767,610.69073L414.07785,610.6917C415.56497,606.1145,415.69046,602.0042,414.87094,598.8657L414.8712,598.8667C413.6934,594.35547,410.5643,591.8518,406.72043,592.8554L406.7206,592.85645C400.2017,594.55743,391.62784,606.3469,388.00345,617.4996 Z"/>
</g>
</g>
<g id="layer2">
<g style="fill:rgb(0,250,100); fill-opacity:1.0; stroke-linejoin: miter">
<path d="M360.6511,578.77325C325.33124,578.24005,296.11493,606.58734,295.58203,641.90857C295.0488,677.22864,323.39627,706.4456,358.71622,706.97833C394.0364,707.51117,423.2524,679.1624,423.7858,643.84265C424.31845,608.52167,395.97113,579.3064,360.6511,578.77325 Z M353.46698,629.9582L353.75723,610.72784C353.81046,607.202,356.73834,604.36224,360.26422,604.41486L360.2641,604.41974C363.78973,604.4686,366.63077,607.3961,366.57758,610.92194L366.28732,630.1523L377.76154,630.33264C380.6461,630.36865,382.00436,633.8511,379.92322,635.8082L361.76895,653.42224C360.46725,654.6854,358.47998,654.6561,357.2176,653.3537L339.60287,635.1995C337.64575,633.18146,339.10812,629.74194,341.99258,629.78516L353.46692,629.9656 Z M384.84088,675.3131L333.559,674.5454C330.0336,674.4867,327.19257,671.5591,327.24576,668.0332L327.2457,668.0405C327.299,664.50745,330.22726,661.66644,333.75275,661.7189L385.03445,662.4991C388.55975,662.54675,391.40112,665.47437,391.34784,669.0001L391.34778,669.00745C391.29465,672.526,388.36615,675.36694,384.84088,675.3131 Z"/>
</g>
</g>
</svg>